<svg xmlns="http://www.w3.org/2000/svg" viewBox="0 0 32 32" fill="none">
  <defs>
    <linearGradient id="fav-flame-outer" x1="16" y1="30" x2="16" y2="3" gradientUnits="userSpaceOnUse">
      <stop stop-color="#FCD34D"/>
      <stop offset=".2" stop-color="#F97316"/>
      <stop offset=".5" stop-color="#EA580C"/>
      <stop offset=".8" stop-color="#DC2626"/>
      <stop offset="1" stop-color="#991B1B"/>
    </linearGradient>
    <linearGradient id="fav-flame-core" x1="16" y1="29" x2="16" y2="5" gradientUnits="userSpaceOnUse">
      <stop stop-color="#FBBF24"/>
      <stop offset=".25" stop-color="#F59E0B"/>
      <stop offset=".55" stop-color="#EF4444"/>
      <stop offset=".85" stop-color="#DC2626"/>
      <stop offset="1" stop-color="#B91C1C"/>
    </linearGradient>
  </defs>
  <path d="M16 3c0 0-6.4 6.4-6.4 12.8 0 4.8 2.8 8 6.4 11.2 3.6-3.2 6.4-6.4 6.4-11.2 0-6.4-6.4-12.8-6.4-12.8z" fill="url(#fav-flame-outer)"/>
  <path d="M16 8c0 0-3.2 4.8-3.2 9.6 0 3.2 1.6 4.8 3.2 6.4 1.6-1.6 3.2-3.2 3.2-6.4 0-4.8-3.2-9.6-3.2-9.6z" fill="url(#fav-flame-core)"/>
  <ellipse cx="16" cy="6.4" rx="1.6" ry="2" fill="#FEF3C7" fill-opacity=".95"/>
</svg>
